<svg width="901" height="120" viewBox="0 0 901 120" fill="none" xmlns="http://www.w3.org/2000/svg">
<g id="midWaves">
<path id="Vector" d="M48 58H453" stroke="black" stroke-width="4" stroke-miterlimit="10" stroke-linecap="round"/>
<path id="Vector_2" d="M470 58H889" stroke="black" stroke-width="4" stroke-miterlimit="10" stroke-linecap="round"/>
<path id="Vector_3" d="M871 43L415 44" stroke="black" stroke-width="4" stroke-miterlimit="10" stroke-linecap="round"/>
<path id="Vector_4" d="M391 44H8" stroke="black" stroke-width="4" stroke-miterlimit="10" stroke-linecap="round"/>
</g>
<g id="topWaves">
<path id="Vector_5" d="M60 27L476 25" stroke="black" stroke-width="2" stroke-miterlimit="10" stroke-linecap="round"/>
<path id="Vector_6" d="M540 23L808 25" stroke="black" stroke-width="2" stroke-miterlimit="10" stroke-linecap="round"/>
<path id="Vector_7" d="M856 11H390" stroke="black" stroke-width="2" stroke-miterlimit="10" stroke-linecap="round"/>
<path id="Vector_8" d="M368 11H40" stroke="black" stroke-width="2" stroke-miterlimit="10" stroke-linecap="round"/>
</g>
<path id="diasotBrand" d="M218.842 110V20.4H255.322C264.879 20.4 273.242 22.32 280.41 26.16C287.663 29.9147 293.295 35.1627 297.306 41.904C301.317 48.6453 303.322 56.4107 303.322 65.2C303.322 73.9893 301.317 81.7547 297.306 88.496C293.295 95.2373 287.663 100.528 280.41 104.368C273.242 108.123 264.879 110 255.322 110H218.842ZM228.314 101.808H254.81C262.746 101.808 269.615 100.272 275.418 97.2C281.306 94.0427 285.871 89.7333 289.114 84.272C292.357 78.7253 293.978 72.368 293.978 65.2C293.978 57.9467 292.357 51.5893 289.114 46.128C285.871 40.6667 281.306 36.4 275.418 33.328C269.615 30.1707 262.746 28.592 254.81 28.592H228.314V101.808ZM324.592 110V20.4H334.064V110H324.592ZM348.881 110L389.841 20.4H399.185L440.145 110H430.161L392.529 25.904H396.369L358.737 110H348.881ZM365.009 86.064L367.825 78.384H419.921L422.737 86.064H365.009ZM479.671 110.768C473.015 110.768 466.615 109.701 460.471 107.568C454.412 105.349 449.719 102.533 446.391 99.12L450.103 91.824C453.26 94.896 457.484 97.4987 462.775 99.632C468.151 101.68 473.783 102.704 479.671 102.704C485.303 102.704 489.868 102.021 493.367 100.656C496.951 99.2053 499.554 97.2853 501.175 94.896C502.882 92.5067 503.735 89.8613 503.735 86.96C503.735 83.4613 502.711 80.6453 500.663 78.512C498.7 76.3787 496.098 74.7147 492.855 73.52C489.612 72.24 486.028 71.1307 482.103 70.192C478.178 69.2533 474.252 68.272 470.327 67.248C466.402 66.1387 462.775 64.688 459.447 62.896C456.204 61.104 453.559 58.7573 451.511 55.856C449.548 52.8693 448.567 48.9867 448.567 44.208C448.567 39.7707 449.719 35.7173 452.023 32.048C454.412 28.2933 458.039 25.3067 462.903 23.088C467.767 20.784 473.996 19.632 481.591 19.632C486.626 19.632 491.618 20.3573 496.567 21.808C501.516 23.1733 505.783 25.0933 509.367 27.568L506.167 35.12C502.327 32.56 498.231 30.6827 493.879 29.488C489.612 28.2933 485.474 27.696 481.463 27.696C476.087 27.696 471.65 28.4213 468.151 29.872C464.652 31.3227 462.05 33.2853 460.343 35.76C458.722 38.1493 457.911 40.88 457.911 43.952C457.911 47.4507 458.892 50.2667 460.855 52.4C462.903 54.5333 465.548 56.1973 468.791 57.392C472.119 58.5867 475.746 59.6533 479.671 60.592C483.596 61.5307 487.479 62.5547 491.319 63.664C495.244 64.7733 498.828 66.224 502.071 68.016C505.399 69.7227 508.044 72.0267 510.007 74.928C512.055 77.8293 513.079 81.6267 513.079 86.32C513.079 90.672 511.884 94.7253 509.495 98.48C507.106 102.149 503.436 105.136 498.487 107.44C493.623 109.659 487.351 110.768 479.671 110.768ZM572.885 110.768C566.144 110.768 559.872 109.659 554.069 107.44C548.352 105.136 543.36 101.936 539.093 97.84C534.912 93.6587 531.626 88.8373 529.237 83.376C526.933 77.8293 525.781 71.7707 525.781 65.2C525.781 58.6293 526.933 52.6133 529.237 47.152C531.626 41.6053 534.912 36.784 539.093 32.688C543.36 28.5067 548.352 25.3067 554.069 23.088C559.786 20.784 566.058 19.632 572.885 19.632C579.626 19.632 585.856 20.784 591.573 23.088C597.29 25.3067 602.24 28.464 606.421 32.56C610.688 36.656 613.973 41.4773 616.277 47.024C618.666 52.5707 619.861 58.6293 619.861 65.2C619.861 71.7707 618.666 77.8293 616.277 83.376C613.973 88.9227 610.688 93.744 606.421 97.84C602.24 101.936 597.29 105.136 591.573 107.44C585.856 109.659 579.626 110.768 572.885 110.768ZM572.885 102.32C578.261 102.32 583.21 101.424 587.733 99.632C592.341 97.7547 596.309 95.152 599.637 91.824C603.05 88.4107 605.696 84.4853 607.573 80.048C609.45 75.5253 610.389 70.576 610.389 65.2C610.389 59.824 609.45 54.9173 607.573 50.48C605.696 45.9573 603.05 42.032 599.637 38.704C596.309 35.2907 592.341 32.688 587.733 30.896C583.21 29.0187 578.261 28.08 572.885 28.08C567.509 28.08 562.517 29.0187 557.909 30.896C553.301 32.688 549.29 35.2907 545.877 38.704C542.549 42.032 539.904 45.9573 537.941 50.48C536.064 54.9173 535.125 59.824 535.125 65.2C535.125 70.4907 536.064 75.3973 537.941 79.92C539.904 84.4427 542.549 88.4107 545.877 91.824C549.29 95.152 553.301 97.7547 557.909 99.632C562.517 101.424 567.509 102.32 572.885 102.32ZM657.25 110V28.592H625.762V20.4H698.21V28.592H666.722V110H657.25Z" fill="black"/>
<g id="lowWaves">
<path id="Vector_9" d="M6 116H338" stroke="black" stroke-width="8" stroke-miterlimit="10" stroke-linecap="round"/>
<path id="Vector_10" d="M380 116H876" stroke="black" stroke-width="8" stroke-miterlimit="10" stroke-linecap="round"/>
<path id="Vector_11" d="M49 104L404 103" stroke="black" stroke-width="8" stroke-miterlimit="10" stroke-linecap="round"/>
<path id="Vector_12" d="M454 102H609" stroke="black" stroke-width="8" stroke-miterlimit="10" stroke-linecap="round"/>
<path id="Vector_13" d="M654 102H845" stroke="black" stroke-width="8" stroke-miterlimit="10" stroke-linecap="round"/>
<path id="Vector_14" d="M892 87L352 88" stroke="black" stroke-width="8" stroke-miterlimit="10" stroke-linecap="round"/>
<path id="Vector_15" d="M17 88H277" stroke="black" stroke-width="8" stroke-miterlimit="10" stroke-linecap="round"/>
<path id="Vector_16" d="M91.5 74.5H472.5" stroke="black" stroke-width="7" stroke-miterlimit="10" stroke-linecap="round"/>
<path id="Vector_17" d="M514.5 74.5H711.5" stroke="black" stroke-width="7" stroke-miterlimit="10" stroke-linecap="round"/>
<path id="Vector_18" d="M778.5 74.5H820.5" stroke="black" stroke-width="7" stroke-miterlimit="10" stroke-linecap="round"/>
</g>
</svg>
